<?xml version="1.0" encoding="iso-8859-1"?>
<!-- Generator: Adobe Illustrator 19.0.0, SVG Export Plug-In . SVG Version: 6.00 Build 0)  -->
<svg version="1.1" id="Capa_1" xmlns="http://www.w3.org/2000/svg" xmlns:xlink="http://www.w3.org/1999/xlink" x="0px" y="0px"
	 viewBox="0 0 512 512" style="enable-background:new 0 0 512 512;" xml:space="preserve">
<path style="fill:#FC6868;" d="M427.515,7.504H266.109v496.238h161.406c23.516,0,42.65-19.133,42.65-42.649V50.153
	C470.165,26.636,451.032,7.504,427.515,7.504z"/>
<rect x="266.114" y="7.504" style="fill:#ED5A5A;" width="60.718" height="496.238"/>
<path style="fill:#F94A46;" d="M427.515,34.503H266.109v442.24h161.406c8.63,0,15.651-7.021,15.651-15.65V50.153
	C443.166,41.523,436.145,34.503,427.515,34.503z"/>
<rect x="266.114" y="34.503" style="fill:#EA3939;" width="60.718" height="442.24"/>
<path style="fill:#FC6868;" d="M265.956,7.5H72.97c-16.98,0-30.872,13.893-30.872,30.872v435.213
	c0,16.98,13.893,30.872,30.872,30.872h192.986c16.98,0,30.872-13.893,30.872-30.872V38.372C296.828,21.392,282.935,7.5,265.956,7.5z
	 M70.531,56.245c0-11.186,9.068-20.254,20.254-20.254h56.798c11.186,0,20.254,9.068,20.254,20.254s-9.068,20.254-20.254,20.254
	H90.785C79.599,76.498,70.531,67.43,70.531,56.245z"/>
<path style="fill:#ED5A5A;" d="M72.097,473.585V64.057c-1.007-2.405-1.566-5.043-1.566-7.813s0.559-5.409,1.566-7.813v-10.06
	C72.097,21.393,85.99,7.5,102.97,7.5H72.97c-16.98,0-30.872,13.893-30.872,30.872v435.213c0,16.98,13.893,30.872,30.872,30.872
	h29.999C85.99,504.457,72.097,490.564,72.097,473.585z"/>
<path style="fill:#F94A46;" d="M230.978,476.743H107.948c-6.6,0-12,5.4-12,12v15.715h147.028v-15.715
	C242.977,482.143,237.577,476.743,230.978,476.743z"/>
<path style="fill:#EA3939;" d="M137.948,476.743h-29.999c-6.6,0-12,5.4-12,12v15.715h29.999v-15.715
	C125.948,482.143,131.349,476.743,137.948,476.743z"/>
<circle style="fill:#F94A46;" cx="169.466" cy="163.906" r="33.179"/>
<path style="fill:#EA3939;" d="M169.463,163.903c-6.14-10.634-5.715-23.249,0.002-33.176c-5.64-0.006-11.357,1.418-16.593,4.441
	c-15.87,9.163-21.306,29.455-12.145,45.325c9.162,15.87,29.455,21.308,45.325,12.145c5.236-3.023,9.328-7.262,12.143-12.149
	C186.741,180.478,175.603,174.537,169.463,163.903z"/>
<path d="M147.451,28.49H90.654c-15.304,0-27.753,12.451-27.753,27.754s12.45,27.753,27.753,27.753h56.797
	c15.304,0,27.753-12.45,27.753-27.753S162.754,28.49,147.451,28.49z M147.451,68.998H90.654c-7.033,0-12.754-5.722-12.754-12.754
	c0-7.033,5.722-12.755,12.754-12.755h56.797c7.033,0,12.754,5.722,12.754,12.755C160.204,63.277,154.483,68.998,147.451,68.998z"/>
<path d="M128.652,163.903c0,22.431,18.25,40.68,40.68,40.68s40.68-18.249,40.68-40.68s-18.25-40.68-40.68-40.68
	C146.901,123.224,128.652,141.473,128.652,163.903z M169.331,138.224c14.16,0,25.68,11.521,25.68,25.68s-11.521,25.68-25.68,25.68
	c-14.16,0-25.68-11.521-25.68-25.68C143.652,149.743,155.171,138.224,169.331,138.224z"/>
<path d="M470.034,83.998c4.142,0,7.5-3.357,7.5-7.5V50.153c0-27.652-22.497-50.149-50.15-50.149H265.979
	c-0.052,0-0.102-0.004-0.154-0.004H72.838C51.68,0,34.466,17.214,34.466,38.372v322.103v33.741c0,4.143,3.358,7.5,7.5,7.5
	s7.5-3.357,7.5-7.5v-33.741V38.372C49.466,25.484,59.951,15,72.838,15c2.034,0,192.586-0.001,193.071,0.002
	c12.714,0,23.287,10.518,23.287,23.37c-0.043,455.757,0.109,435.335-0.12,437.592c-0.059,0.58-0.151,1.201-0.257,1.779
	c-0.007,0.039-0.014,0.079-0.021,0.118c-1.626,8.591-8.12,16.171-18.159,18.596c-3.973,0.835-5.759,0.366-20.294,0.501v-8.215
	c0-10.752-8.747-19.5-19.5-19.5h-10.835c-4.142,0-7.5,3.357-7.5,7.5s3.358,7.5,7.5,7.5h10.835c2.439,0,4.5,2.061,4.5,4.5v8.215
	h-132.03v-8.215c0-2.439,2.061-4.5,4.5-4.5h77.194c4.142,0,7.5-3.357,7.5-7.5s-3.358-7.5-7.5-7.5h-77.194
	c-10.752,0-19.5,8.748-19.5,19.5v8.215h-15.48c-12.888,0-23.372-10.485-23.372-23.372c0-4.523,0-40.099,0-44.368
	c0-4.143-3.358-7.5-7.5-7.5s-7.5,3.357-7.5,7.5c0,4.321,0,39.699,0,44.368c0,21.158,17.214,38.372,38.372,38.372
	c211.396,0,195.104,0.306,200.34-0.715h154.204c27.652,0,50.15-22.496,50.15-50.149V111.497c0-4.143-3.358-7.5-7.5-7.5
	c-4.143,0-7.5,3.357-7.5,7.5v349.595c0,19.382-15.769,35.149-35.15,35.149H296.804c2.732-3.732,4.718-7.94,5.888-12h124.691
	c12.766,0,23.15-10.385,23.15-23.149V50.153c0-12.766-10.386-23.149-23.15-23.149H302.476c-1.364-4.39-3.504-8.439-6.247-12h131.154
	c19.383,0,35.15,15.769,35.15,35.149v26.345C462.534,80.641,465.891,83.998,470.034,83.998z M304.196,42.003h123.187
	c4.495,0,8.151,3.656,8.151,8.15v410.939c0,4.494-3.656,8.15-8.151,8.15H304.196V42.003z"/>
<g>
</g>
<g>
</g>
<g>
</g>
<g>
</g>
<g>
</g>
<g>
</g>
<g>
</g>
<g>
</g>
<g>
</g>
<g>
</g>
<g>
</g>
<g>
</g>
<g>
</g>
<g>
</g>
<g>
</g>
</svg>
