<svg id="Layer_1" enable-background="new 0 0 512 512" height="512" viewBox="0 0 512 512" width="512" xmlns="http://www.w3.org/2000/svg"><g><g><g fill="#58768c"><path d="m381.66 503.53s-8.7.89-19.87.96c-6.35.05-13.49-.17-20.3-.96 0 0-8.12-17.62-12.54-38.46l34.91-2.64 17.8-1.35s3.13 21.71 0 42.45z"/><path d="m183.05 465.07c-4.42 20.84-12.54 38.46-12.54 38.46-6.82.8-13.98 1.01-20.34.96-11.15-.07-19.83-.96-19.83-.96-3.13-20.74 0-42.45 0-42.45l32.15 2.43z"/></g><path d="m183.05 465.07c-4.42 20.84-12.54 38.46-12.54 38.46-6.82.8-13.98 1.01-20.34.96 6.12-16.52 9.96-30.63 12.32-40.98z" fill="#3e5868"/><path d="m381.66 503.53s-8.7.89-19.87.96c1.74-15 2.12-30.49 2.07-42.06l17.8-1.35s3.13 21.71 0 42.45z" fill="#3e5868"/><path d="m416 237.47c0 110.42-6.33 220.86-6.33 220.86s-10.35 1.22-27.25 2.78c-29.16 2.67-77.79 6.31-126.42 6.31-76.83 0-153.67-9.09-153.67-9.09s-6.33-110.44-6.33-220.86c0-110.44 6.33-220.87 6.33-220.87s76.84-9.1 153.67-9.1c48.56 0 97.12 3.64 126.29 6.31 16.98 1.56 27.38 2.79 27.38 2.79s6.33 110.43 6.33 220.87z" fill="#ffe878"/><path d="m416 237.47c0 110.42-6.33 220.86-6.33 220.86s-10.35 1.22-27.25 2.78c11.51-206.57 2.62-397.32-.13-447.3 16.98 1.56 27.38 2.79 27.38 2.79s6.33 110.43 6.33 220.87z" fill="#ffd37b"/><g><path d="m361.83 304.88c0 58.39-47.38 105.73-105.83 105.73-4.4 0-8.74-.27-13-.8-52.32-6.39-92.83-50.94-92.83-104.93 0-53.98 40.51-98.53 92.83-104.92 4.26-.53 8.6-.8 13-.8 58.45 0 105.83 47.34 105.83 105.72z" fill="#dcf8ff"/><path d="m361.83 304.88c0 58.39-47.38 105.73-105.83 105.73-4.4 0-8.74-.27-13-.8 52.32-6.39 92.83-50.94 92.83-104.93 0-53.98-40.51-98.53-92.83-104.92 4.26-.53 8.6-.8 13-.8 58.45 0 105.83 47.34 105.83 105.72z" fill="#d2e1f9"/></g><path d="m328.52 304.88c0 40.02-32.47 72.45-72.52 72.45-4.79 0-9.47-.46-14-1.35-33.35-6.52-58.52-35.87-58.52-71.1 0-35.22 25.17-64.58 58.52-71.1 4.53-.89 9.21-1.35 14-1.35 40.05 0 72.52 32.44 72.52 72.45z" fill="#58768c"/><path d="m328.52 304.88c0 40.02-32.47 72.45-72.52 72.45-4.79 0-9.47-.46-14-1.35 33.35-6.52 58.52-35.87 58.52-71.1 0-35.22-25.17-64.58-58.52-71.1 4.53-.89 9.21-1.35 14-1.35 40.05 0 72.52 32.44 72.52 72.45z" fill="#3e5868"/><ellipse cx="256" cy="304.884" fill="#97b0bf" rx="15" ry="14.985"/><path d="m308.52 116.79c0 28.98-23.51 52.47-52.52 52.47-4.13 0-8.15-.48-12-1.37-23.23-5.43-40.52-26.25-40.52-51.1s17.29-45.67 40.52-51.1c3.85-.89 7.87-1.37 12-1.37 29.01 0 52.52 23.49 52.52 52.47z" fill="#58768c"/><path d="m308.52 116.79c0 28.98-23.51 52.47-52.52 52.47-4.13 0-8.15-.48-12-1.37 23.23-5.43 40.52-26.25 40.52-51.1s-17.29-45.67-40.52-51.1c3.85-.89 7.87-1.37 12-1.37 29.01 0 52.52 23.49 52.52 52.47z" fill="#3e5868"/><ellipse cx="256" cy="116.789" fill="#97b0bf" rx="15" ry="14.985"/></g><g><path d="m410.553 9.149c-.773-.092-78.163-9.149-154.553-9.149-76.391 0-153.78 9.057-154.553 9.149-3.612.428-6.397 3.386-6.605 7.018-.012.204-1.185 20.761-2.502 52.4-.173 4.139 3.043 7.633 7.182 7.806 4.104.17 7.633-3.043 7.805-7.182.885-21.246 1.703-37.465 2.146-45.839 19.815-2.117 83.541-8.352 146.527-8.352 62.98 0 126.705 6.234 146.526 8.352 1.316 25.001 5.974 120.085 5.974 214.114 0 4.142 3.357 7.5 7.5 7.5s7.5-3.358 7.5-7.5c0-109.383-6.278-220.192-6.342-221.298-.208-3.633-2.992-6.591-6.605-7.019z"/><path d="m415.874 266.037c-.029 0-.058 0-.087 0-4.103 0-7.451 3.302-7.498 7.415-.915 81.074-4.612 156.293-5.763 178.118-15.819 1.692-59.609 6.013-108.541 7.675-4.14.141-7.382 3.61-7.241 7.75.138 4.053 3.467 7.245 7.491 7.245.086 0 .173-.001.26-.004 9.79-.333 19.378-.771 28.585-1.273 4.638 18.5 11.283 33.023 11.594 33.698 1.095 2.374 3.346 4.006 5.941 4.309 6.615.773 13.481 1.03 19.692 1.03 11.979 0 21.52-.958 22.117-1.019 3.403-.349 6.14-2.958 6.65-6.341 2.111-13.984 1.546-28.195.849-36.72 12.759-1.226 20.427-2.125 20.627-2.149 3.613-.427 6.397-3.387 6.605-7.019.051-.878 5.043-88.894 6.13-185.132.05-4.141-3.269-7.536-7.411-7.583zm-40.914 230.482c-6.565.412-17.634.833-28.328-.029-2.005-4.875-5.454-13.88-8.288-24.435 13.619-.877 26.058-1.853 36.631-2.769.523 6.538.974 16.763-.015 27.233z"/><path d="m256 459.92c-62.981 0-126.705-6.234-146.526-8.352-1.316-25.001-5.974-120.083-5.974-214.104 0-40.369.839-85.195 2.493-133.232.143-4.14-3.098-7.611-7.237-7.754-4.125-.129-7.611 3.097-7.753 7.237-1.661 48.21-2.503 93.209-2.503 133.749 0 109.374 6.278 220.181 6.342 221.288.208 3.632 2.992 6.591 6.605 7.019.24.028 7.895.924 20.627 2.145-.697 8.525-1.263 22.738.849 36.723.511 3.383 3.247 5.992 6.65 6.341.598.061 10.137 1.019 22.117 1.019 6.21 0 13.078-.257 19.692-1.03 2.596-.303 4.847-1.936 5.941-4.31.311-.675 6.958-15.203 11.596-33.707 21.043 1.148 44.106 1.967 67.079 1.967 4.143 0 7.5-3.358 7.5-7.5.002-4.141-3.355-7.499-7.498-7.499zm-90.632 36.57c-10.694.86-21.763.44-28.328.029-.99-10.472-.539-20.701-.015-27.239 10.567.914 23.003 1.888 36.633 2.765-2.835 10.561-6.285 19.569-8.29 24.445z"/><path d="m158.455 263.132c-3.918-1.359-8.188.712-9.546 4.624-4.138 11.913-6.235 24.405-6.235 37.126 0 62.431 50.838 113.221 113.326 113.221s113.326-50.791 113.326-113.221c0-62.431-50.838-113.221-113.326-113.221-35.159 0-67.742 15.901-89.395 43.626-2.55 3.265-1.97 7.977 1.295 10.527 3.265 2.549 7.977 1.971 10.527-1.295 18.79-24.059 47.063-37.858 77.572-37.858 54.217 0 98.326 44.062 98.326 98.221s-44.109 98.221-98.326 98.221-98.326-44.062-98.326-98.221c0-11.042 1.818-21.877 5.405-32.205 1.36-3.913-.711-8.187-4.623-9.545z"/><path d="m256 384.832c44.124 0 80.021-35.865 80.021-79.95 0-44.084-35.897-79.95-80.021-79.95s-80.021 35.865-80.021 79.95c0 44.084 35.897 79.95 80.021 79.95zm0-144.9c35.853 0 65.021 29.136 65.021 64.95s-29.169 64.95-65.021 64.95-65.021-29.136-65.021-64.95 29.168-64.95 65.021-64.95z"/><path d="m256 327.367c12.406 0 22.5-10.087 22.5-22.485s-10.094-22.485-22.5-22.485-22.5 10.087-22.5 22.485 10.094 22.485 22.5 22.485zm0-29.971c4.136 0 7.5 3.358 7.5 7.485s-3.364 7.485-7.5 7.485-7.5-3.358-7.5-7.485 3.364-7.485 7.5-7.485z"/><path d="m305.612 135.624c4.041.906 8.053-1.636 8.959-5.678.963-4.294 1.451-8.722 1.451-13.158 0-33.068-26.926-59.971-60.022-59.971s-60.023 26.903-60.023 59.971 26.927 59.971 60.023 59.971c14.456 0 28.424-5.209 39.33-14.667 3.129-2.714 3.466-7.451.752-10.58s-7.451-3.465-10.58-.752c-8.179 7.093-18.655 10.999-29.502 10.999-24.826 0-45.023-20.174-45.023-44.971s20.197-44.971 45.023-44.971c24.825 0 45.022 20.174 45.022 44.971 0 3.334-.366 6.657-1.088 9.877-.906 4.041 1.636 8.053 5.678 8.959z"/><path d="m233.5 116.788c0 12.398 10.094 22.485 22.5 22.485s22.5-10.087 22.5-22.485-10.094-22.485-22.5-22.485-22.5 10.087-22.5 22.485zm30 0c0 4.127-3.364 7.485-7.5 7.485s-7.5-3.358-7.5-7.485 3.364-7.485 7.5-7.485 7.5 3.358 7.5 7.485z"/><path d="m454.402 175.731c-2.673-3.143-7.367-3.52-10.526-.865-3.158 2.656-3.564 7.379-.927 10.552.172.206 17.118 21.063 17.118 62.301 0 41.092-16.827 61.947-17.115 62.298-2.657 3.155-2.268 7.868.878 10.544 1.411 1.2 3.138 1.787 4.855 1.787 2.124 0 4.233-.897 5.717-2.641.844-.992 20.665-24.84 20.665-71.987 0-47.149-19.821-70.997-20.665-71.989z"/><path d="m479.812 134.759c-2.676-3.148-7.388-3.527-10.544-.861-3.157 2.667-3.554 7.394-.898 10.56.285.341 28.63 34.92 28.63 103.261 0 68.34-28.345 102.919-28.631 103.26-2.666 3.155-2.278 7.875.87 10.552 1.411 1.2 3.138 1.787 4.855 1.787 2.124 0 4.233-.897 5.717-2.641 1.315-1.545 32.189-38.699 32.189-112.958 0-74.261-30.874-111.415-32.188-112.96z"/><path d="m68.17 174.877c-3.155-2.684-7.889-2.3-10.572.854-.844.992-20.666 24.84-20.666 71.988 0 47.147 19.822 70.995 20.666 71.987 1.479 1.74 3.578 2.632 5.693 2.632 1.706 0 3.423-.581 4.833-1.767 3.158-2.655 3.564-7.379.926-10.551-.171-.206-17.118-21.063-17.118-62.301s16.947-62.095 17.092-62.27c2.683-3.156 2.301-7.889-.854-10.572z"/><path d="m15 247.719c0-68.34 28.344-102.919 28.613-103.242 2.684-3.155 2.302-7.889-.854-10.572-3.155-2.682-7.889-2.3-10.572.854-1.314 1.545-32.187 38.699-32.187 112.96 0 74.26 30.873 111.414 32.188 112.959 1.48 1.741 3.584 2.636 5.702 2.636 1.711 0 3.432-.583 4.842-1.775 3.157-2.666 3.554-7.393.898-10.559-.286-.342-28.63-34.922-28.63-103.261z"/><circle cx="141.001" cy="420.984" r="7.5"/><circle cx="371.001" cy="420.984" r="7.5"/><circle cx="141.001" cy="51.355" r="7.5"/><circle cx="371.001" cy="51.355" r="7.5"/></g></g></svg>